<svg width="24" height="24" xmlns="http://www.w3.org/2000/svg">

 <g>
  <title>background</title>
  <rect fill="none" id="canvas_background" height="402" width="582" y="-1" x="-1"/>
 </g>
 <g>
  <title>Layer 1</title>
  <path transform="rotate(-180 12,12) " id="svg_1" fill="#41F6D7" d="m14.500028,7.060659l-2.5,2.50002l-2.50002,-2.50002c-0.27615,-0.27615 -0.72386,-0.27615 -1,0c-0.27615,0.27614 -0.27615,0.72385 0,1l2.79292,2.79292c0.3905,0.3905 1.0237,0.3905 1.4142,0l2.7929,-2.79292c0.2761,-0.27615 0.2761,-0.72386 0,-1c-0.2762,-0.27615 -0.7239,-0.27615 -1,0zm0,6.00002l-2.5,2.5l-2.50002,-2.5c-0.27615,-0.2762 -0.72386,-0.2762 -1,0c-0.27615,0.2761 -0.27615,0.7238 0,1l2.79292,2.7929c0.3905,0.3905 1.0237,0.3905 1.4142,0l2.7929,-2.7929c0.2761,-0.2762 0.2761,-0.7239 0,-1c-0.2762,-0.2762 -0.7239,-0.2762 -1,0z" clip-rule="evenodd" fill-rule="evenodd"/>
 </g>
</svg>